<svg xmlns="http://www.w3.org/2000/svg" width="980" height="670" viewBox="0 0 980 670" font-family="Inter, Helvetica, Arial, sans-serif">
<rect width="980" height="670" fill="#fcfcfb"/>
<text x="70" y="30" font-size="15" font-weight="700" fill="#0b0b0b">ISA growth vs. hand-written lifter coverage (Remill)</text>
<rect x="70" y="74" width="360" height="210" fill="#fcfcfb"/>
<line x1="70" y1="284.0" x2="430" y2="284.0" stroke="#e4e3df" stroke-width="1"/>
<text x="62" y="288.0" text-anchor="end" font-size="11" fill="#52514e">0</text>
<line x1="70" y1="240.5" x2="430" y2="240.5" stroke="#e4e3df" stroke-width="1"/>
<text x="62" y="244.5" text-anchor="end" font-size="11" fill="#52514e">2,000</text>
<line x1="70" y1="196.9" x2="430" y2="196.9" stroke="#e4e3df" stroke-width="1"/>
<text x="62" y="200.9" text-anchor="end" font-size="11" fill="#52514e">4,000</text>
<line x1="70" y1="153.4" x2="430" y2="153.4" stroke="#e4e3df" stroke-width="1"/>
<text x="62" y="157.4" text-anchor="end" font-size="11" fill="#52514e">6,000</text>
<line x1="70" y1="109.8" x2="430" y2="109.8" stroke="#e4e3df" stroke-width="1"/>
<text x="62" y="113.8" text-anchor="end" font-size="11" fill="#52514e">8,000</text>
<line x1="75.6" y1="284" x2="75.6" y2="288" stroke="#b9b8b2" stroke-width="1"/>
<text x="75.6" y="302" text-anchor="middle" font-size="11" fill="#52514e">2019</text>
<line x1="120.1" y1="284" x2="120.1" y2="288" stroke="#b9b8b2" stroke-width="1"/>
<text x="120.1" y="302" text-anchor="middle" font-size="11" fill="#52514e">2020</text>
<line x1="164.6" y1="284" x2="164.6" y2="288" stroke="#b9b8b2" stroke-width="1"/>
<text x="164.6" y="302" text-anchor="middle" font-size="11" fill="#52514e">2021</text>
<line x1="209.0" y1="284" x2="209.0" y2="288" stroke="#b9b8b2" stroke-width="1"/>
<text x="209.0" y="302" text-anchor="middle" font-size="11" fill="#52514e">2022</text>
<line x1="253.5" y1="284" x2="253.5" y2="288" stroke="#b9b8b2" stroke-width="1"/>
<text x="253.5" y="302" text-anchor="middle" font-size="11" fill="#52514e">2023</text>
<line x1="298.0" y1="284" x2="298.0" y2="288" stroke="#b9b8b2" stroke-width="1"/>
<text x="298.0" y="302" text-anchor="middle" font-size="11" fill="#52514e">2024</text>
<line x1="342.5" y1="284" x2="342.5" y2="288" stroke="#b9b8b2" stroke-width="1"/>
<text x="342.5" y="302" text-anchor="middle" font-size="11" fill="#52514e">2025</text>
<line x1="387.0" y1="284" x2="387.0" y2="288" stroke="#b9b8b2" stroke-width="1"/>
<text x="387.0" y="302" text-anchor="middle" font-size="11" fill="#52514e">2026</text>
<line x1="70" y1="284" x2="430" y2="284" stroke="#b9b8b2" stroke-width="1"/>
<text x="70" y="64" font-size="12.5" font-weight="600" fill="#0b0b0b">x86-64 (XED iforms) - instruction count</text>
<text x="24" y="179.0" font-size="11" fill="#52514e" text-anchor="middle" transform="rotate(-90 24 179.0)">instructions</text>
<path d="M76.7,151.4 L76.8,151.4 L79.0,151.4 L79.1,151.4 L79.6,151.4 L83.0,151.4 L84.2,151.3 L84.6,151.3 L112.4,151.3 L112.6,151.3 L128.9,150.4 L128.9,150.4 L128.9,150.4 L132.8,150.4 L133.1,150.3 L161.2,149.2 L165.8,149.1 L165.9,149.1 L166.9,149.1 L167.2,149.1 L173.1,149.1 L203.5,139.0 L203.5,139.0 L204.2,139.0 L206.8,139.0 L207.4,139.0 L214.9,139.0 L214.9,139.0 L247.7,136.9 L248.2,136.9 L352.7,135.4 L353.5,133.7 L353.5,133.7 L353.5,119.9 L356.6,119.9 L357.7,119.9 L358.9,96.5 L362.4,99.7 L388.9,99.7 L392.4,99.7 L392.4,99.7" fill="none" stroke="#2a78d6" stroke-width="2" stroke-linejoin="round" stroke-linecap="round"/>
<circle cx="76.7" cy="151.4" r="4" fill="#2a78d6" stroke="#fcfcfb" stroke-width="2"/>
<circle cx="392.4" cy="99.7" r="4" fill="#2a78d6" stroke="#fcfcfb" stroke-width="2"/>
<text x="400.4" y="103.7" font-size="11" font-weight="600" fill="#0b0b0b">8,465</text>
<path d="M76.7,242.5 L76.8,242.5 L79.0,242.5 L79.1,242.5 L79.6,242.5 L83.0,242.5 L84.2,242.5 L84.6,242.4 L112.4,242.4 L112.6,242.4 L128.9,242.4 L128.9,242.4 L128.9,242.4 L132.8,242.4 L133.1,242.4 L161.2,242.4 L165.8,242.4 L165.9,242.4 L166.9,242.4 L167.2,242.4 L173.1,242.4 L203.5,242.4 L203.5,242.4 L204.2,242.4 L206.8,242.4 L207.4,242.4 L214.9,242.4 L214.9,242.4 L247.7,242.4 L248.2,242.4 L352.7,242.3 L353.5,242.3 L353.5,242.3 L353.5,242.3 L356.6,242.3 L357.7,242.3 L358.9,242.3 L362.4,242.2 L388.9,242.2 L392.4,242.2 L392.4,242.2" fill="none" stroke="#eb6834" stroke-width="2" stroke-linejoin="round" stroke-linecap="round"/>
<circle cx="76.7" cy="242.5" r="4" fill="#eb6834" stroke="#fcfcfb" stroke-width="2"/>
<circle cx="392.4" cy="242.2" r="4" fill="#eb6834" stroke="#fcfcfb" stroke-width="2"/>
<text x="400.4" y="246.2" font-size="11" font-weight="600" fill="#0b0b0b">1,919</text>
<rect x="550" y="74" width="360" height="210" fill="#fcfcfb"/>
<line x1="550" y1="284.0" x2="910" y2="284.0" stroke="#e4e3df" stroke-width="1"/>
<text x="542" y="288.0" text-anchor="end" font-size="11" fill="#52514e">0%</text>
<line x1="550" y1="230.4" x2="910" y2="230.4" stroke="#e4e3df" stroke-width="1"/>
<text x="542" y="234.4" text-anchor="end" font-size="11" fill="#52514e">10%</text>
<line x1="550" y1="176.8" x2="910" y2="176.8" stroke="#e4e3df" stroke-width="1"/>
<text x="542" y="180.8" text-anchor="end" font-size="11" fill="#52514e">20%</text>
<line x1="550" y1="123.1" x2="910" y2="123.1" stroke="#e4e3df" stroke-width="1"/>
<text x="542" y="127.1" text-anchor="end" font-size="11" fill="#52514e">30%</text>
<line x1="555.6" y1="284" x2="555.6" y2="288" stroke="#b9b8b2" stroke-width="1"/>
<text x="555.6" y="302" text-anchor="middle" font-size="11" fill="#52514e">2019</text>
<line x1="600.1" y1="284" x2="600.1" y2="288" stroke="#b9b8b2" stroke-width="1"/>
<text x="600.1" y="302" text-anchor="middle" font-size="11" fill="#52514e">2020</text>
<line x1="644.6" y1="284" x2="644.6" y2="288" stroke="#b9b8b2" stroke-width="1"/>
<text x="644.6" y="302" text-anchor="middle" font-size="11" fill="#52514e">2021</text>
<line x1="689.0" y1="284" x2="689.0" y2="288" stroke="#b9b8b2" stroke-width="1"/>
<text x="689.0" y="302" text-anchor="middle" font-size="11" fill="#52514e">2022</text>
<line x1="733.5" y1="284" x2="733.5" y2="288" stroke="#b9b8b2" stroke-width="1"/>
<text x="733.5" y="302" text-anchor="middle" font-size="11" fill="#52514e">2023</text>
<line x1="778.0" y1="284" x2="778.0" y2="288" stroke="#b9b8b2" stroke-width="1"/>
<text x="778.0" y="302" text-anchor="middle" font-size="11" fill="#52514e">2024</text>
<line x1="822.5" y1="284" x2="822.5" y2="288" stroke="#b9b8b2" stroke-width="1"/>
<text x="822.5" y="302" text-anchor="middle" font-size="11" fill="#52514e">2025</text>
<line x1="867.0" y1="284" x2="867.0" y2="288" stroke="#b9b8b2" stroke-width="1"/>
<text x="867.0" y="302" text-anchor="middle" font-size="11" fill="#52514e">2026</text>
<line x1="550" y1="284" x2="910" y2="284" stroke="#b9b8b2" stroke-width="1"/>
<text x="550" y="64" font-size="12.5" font-weight="600" fill="#0b0b0b">x86-64 (XED iforms) - coverage</text>
<text x="504" y="179.0" font-size="11" fill="#52514e" text-anchor="middle" transform="rotate(-90 504 179.0)">% of ISA covered</text>
<path d="M556.7,116.2 L556.8,116.2 L559.0,116.2 L559.1,116.2 L559.6,116.2 L563.0,116.2 L564.2,116.1 L564.6,116.0 L592.4,116.0 L592.6,116.0 L608.9,117.1 L608.9,117.1 L608.9,117.1 L612.8,117.1 L613.1,117.3 L641.2,118.6 L645.8,118.6 L645.9,118.6 L646.9,118.4 L647.2,118.4 L653.1,118.4 L683.5,130.0 L683.5,130.0 L684.2,130.0 L686.8,130.0 L687.4,130.0 L694.9,130.0 L694.9,130.0 L727.7,132.1 L728.2,132.1 L832.7,133.4 L833.5,135.3 L833.5,135.3 L833.5,147.8 L836.6,147.8 L837.7,147.8 L838.9,164.7 L842.4,162.4 L868.9,162.4 L872.4,162.4 L872.4,162.4" fill="none" stroke="#1baf7a" stroke-width="2" stroke-linejoin="round" stroke-linecap="round"/>
<circle cx="556.7" cy="116.2" r="4" fill="#1baf7a" stroke="#fcfcfb" stroke-width="2"/>
<circle cx="872.4" cy="162.4" r="4" fill="#1baf7a" stroke="#fcfcfb" stroke-width="2"/>
<text x="880.4" y="166.4" font-size="11" font-weight="600" fill="#0b0b0b">22.7%</text>
<rect x="70" y="364" width="360" height="210" fill="#fcfcfb"/>
<line x1="70" y1="574.0" x2="430" y2="574.0" stroke="#e4e3df" stroke-width="1"/>
<text x="62" y="578.0" text-anchor="end" font-size="11" fill="#52514e">0</text>
<line x1="70" y1="530.7" x2="430" y2="530.7" stroke="#e4e3df" stroke-width="1"/>
<text x="62" y="534.7" text-anchor="end" font-size="11" fill="#52514e">1,000</text>
<line x1="70" y1="487.4" x2="430" y2="487.4" stroke="#e4e3df" stroke-width="1"/>
<text x="62" y="491.4" text-anchor="end" font-size="11" fill="#52514e">2,000</text>
<line x1="70" y1="444.2" x2="430" y2="444.2" stroke="#e4e3df" stroke-width="1"/>
<text x="62" y="448.2" text-anchor="end" font-size="11" fill="#52514e">3,000</text>
<line x1="70" y1="400.9" x2="430" y2="400.9" stroke="#e4e3df" stroke-width="1"/>
<text x="62" y="404.9" text-anchor="end" font-size="11" fill="#52514e">4,000</text>
<line x1="75.6" y1="574" x2="75.6" y2="578" stroke="#b9b8b2" stroke-width="1"/>
<text x="75.6" y="592" text-anchor="middle" font-size="11" fill="#52514e">2019</text>
<line x1="120.1" y1="574" x2="120.1" y2="578" stroke="#b9b8b2" stroke-width="1"/>
<text x="120.1" y="592" text-anchor="middle" font-size="11" fill="#52514e">2020</text>
<line x1="164.6" y1="574" x2="164.6" y2="578" stroke="#b9b8b2" stroke-width="1"/>
<text x="164.6" y="592" text-anchor="middle" font-size="11" fill="#52514e">2021</text>
<line x1="209.0" y1="574" x2="209.0" y2="578" stroke="#b9b8b2" stroke-width="1"/>
<text x="209.0" y="592" text-anchor="middle" font-size="11" fill="#52514e">2022</text>
<line x1="253.5" y1="574" x2="253.5" y2="578" stroke="#b9b8b2" stroke-width="1"/>
<text x="253.5" y="592" text-anchor="middle" font-size="11" fill="#52514e">2023</text>
<line x1="298.0" y1="574" x2="298.0" y2="578" stroke="#b9b8b2" stroke-width="1"/>
<text x="298.0" y="592" text-anchor="middle" font-size="11" fill="#52514e">2024</text>
<line x1="342.5" y1="574" x2="342.5" y2="578" stroke="#b9b8b2" stroke-width="1"/>
<text x="342.5" y="592" text-anchor="middle" font-size="11" fill="#52514e">2025</text>
<line x1="387.0" y1="574" x2="387.0" y2="578" stroke="#b9b8b2" stroke-width="1"/>
<text x="387.0" y="592" text-anchor="middle" font-size="11" fill="#52514e">2026</text>
<line x1="70" y1="574" x2="430" y2="574" stroke="#b9b8b2" stroke-width="1"/>
<text x="70" y="354" font-size="12.5" font-weight="600" fill="#0b0b0b">A64 (ASL encodings) - instruction count</text>
<text x="24" y="469.0" font-size="11" fill="#52514e" text-anchor="middle" transform="rotate(-90 24 469.0)">instructions</text>
<path d="M116.4,472.9 L127.5,472.9 L138.6,472.9 L149.7,474.0 L160.8,472.6 L172.0,472.7 L183.1,472.7 L194.2,467.4 L205.3,467.4 L216.5,452.3 L227.6,452.3 L238.7,417.8 L249.8,417.6 L260.9,417.6 L272.1,417.6 L283.2,411.3 L294.3,411.2 L316.6,411.2 L327.7,388.1 L338.8,388.1 L361.0,388.1 L372.2,386.5 L383.3,386.5 L394.4,386.5 L405.5,386.5" fill="none" stroke="#2a78d6" stroke-width="2" stroke-linejoin="round" stroke-linecap="round"/>
<circle cx="116.4" cy="472.9" r="4" fill="#2a78d6" stroke="#fcfcfb" stroke-width="2"/>
<circle cx="405.5" cy="386.5" r="4" fill="#2a78d6" stroke="#fcfcfb" stroke-width="2"/>
<text x="413.5" y="390.5" font-size="11" font-weight="600" fill="#0b0b0b">4,332</text>
<path d="M116.4,557.6 L127.5,557.6 L138.6,557.6 L149.7,557.6 L160.8,557.6 L172.0,557.6 L183.1,557.6 L194.2,557.6 L205.3,557.6 L216.5,557.6 L227.6,557.6 L238.7,557.6 L249.8,557.6 L260.9,557.6 L272.1,557.6 L283.2,557.6 L294.3,557.6 L316.6,557.6 L327.7,557.6 L338.8,557.6 L361.0,557.6 L372.2,557.6 L383.3,557.6 L394.4,557.6 L405.5,557.6" fill="none" stroke="#eb6834" stroke-width="2" stroke-linejoin="round" stroke-linecap="round"/>
<circle cx="116.4" cy="557.6" r="4" fill="#eb6834" stroke="#fcfcfb" stroke-width="2"/>
<circle cx="405.5" cy="557.6" r="4" fill="#eb6834" stroke="#fcfcfb" stroke-width="2"/>
<text x="413.5" y="561.6" font-size="11" font-weight="600" fill="#0b0b0b">380</text>
<rect x="550" y="364" width="360" height="210" fill="#fcfcfb"/>
<line x1="550" y1="574.0" x2="910" y2="574.0" stroke="#e4e3df" stroke-width="1"/>
<text x="542" y="578.0" text-anchor="end" font-size="11" fill="#52514e">0%</text>
<line x1="550" y1="522.9" x2="910" y2="522.9" stroke="#e4e3df" stroke-width="1"/>
<text x="542" y="526.9" text-anchor="end" font-size="11" fill="#52514e">5%</text>
<line x1="550" y1="471.8" x2="910" y2="471.8" stroke="#e4e3df" stroke-width="1"/>
<text x="542" y="475.8" text-anchor="end" font-size="11" fill="#52514e">10%</text>
<line x1="550" y1="420.7" x2="910" y2="420.7" stroke="#e4e3df" stroke-width="1"/>
<text x="542" y="424.7" text-anchor="end" font-size="11" fill="#52514e">15%</text>
<line x1="550" y1="369.6" x2="910" y2="369.6" stroke="#e4e3df" stroke-width="1"/>
<text x="542" y="373.6" text-anchor="end" font-size="11" fill="#52514e">20%</text>
<line x1="555.6" y1="574" x2="555.6" y2="578" stroke="#b9b8b2" stroke-width="1"/>
<text x="555.6" y="592" text-anchor="middle" font-size="11" fill="#52514e">2019</text>
<line x1="600.1" y1="574" x2="600.1" y2="578" stroke="#b9b8b2" stroke-width="1"/>
<text x="600.1" y="592" text-anchor="middle" font-size="11" fill="#52514e">2020</text>
<line x1="644.6" y1="574" x2="644.6" y2="578" stroke="#b9b8b2" stroke-width="1"/>
<text x="644.6" y="592" text-anchor="middle" font-size="11" fill="#52514e">2021</text>
<line x1="689.0" y1="574" x2="689.0" y2="578" stroke="#b9b8b2" stroke-width="1"/>
<text x="689.0" y="592" text-anchor="middle" font-size="11" fill="#52514e">2022</text>
<line x1="733.5" y1="574" x2="733.5" y2="578" stroke="#b9b8b2" stroke-width="1"/>
<text x="733.5" y="592" text-anchor="middle" font-size="11" fill="#52514e">2023</text>
<line x1="778.0" y1="574" x2="778.0" y2="578" stroke="#b9b8b2" stroke-width="1"/>
<text x="778.0" y="592" text-anchor="middle" font-size="11" fill="#52514e">2024</text>
<line x1="822.5" y1="574" x2="822.5" y2="578" stroke="#b9b8b2" stroke-width="1"/>
<text x="822.5" y="592" text-anchor="middle" font-size="11" fill="#52514e">2025</text>
<line x1="867.0" y1="574" x2="867.0" y2="578" stroke="#b9b8b2" stroke-width="1"/>
<text x="867.0" y="592" text-anchor="middle" font-size="11" fill="#52514e">2026</text>
<line x1="550" y1="574" x2="910" y2="574" stroke="#b9b8b2" stroke-width="1"/>
<text x="550" y="354" font-size="12.5" font-weight="600" fill="#0b0b0b">A64 (ASL encodings) - coverage</text>
<text x="504" y="469.0" font-size="11" fill="#52514e" text-anchor="middle" transform="rotate(-90 504 469.0)">% of ISA covered</text>
<path d="M596.4,407.7 L607.5,407.7 L618.6,407.7 L629.7,406.0 L640.8,408.2 L652.0,408.1 L663.1,408.1 L674.2,416.3 L685.3,416.3 L696.5,435.8 L707.6,435.8 L718.7,466.4 L729.8,466.5 L740.9,466.5 L752.1,466.5 L763.2,470.7 L774.3,470.8 L796.6,470.8 L807.7,483.6 L818.8,483.6 L841.0,483.6 L852.2,484.4 L863.3,484.4 L874.4,484.4 L885.5,484.4" fill="none" stroke="#1baf7a" stroke-width="2" stroke-linejoin="round" stroke-linecap="round"/>
<circle cx="596.4" cy="407.7" r="4" fill="#1baf7a" stroke="#fcfcfb" stroke-width="2"/>
<circle cx="885.5" cy="484.4" r="4" fill="#1baf7a" stroke="#fcfcfb" stroke-width="2"/>
<text x="893.5" y="488.4" font-size="11" font-weight="600" fill="#0b0b0b">8.8%</text>
<g font-size="11.5" fill="#52514e">
<line x1="70" y1="644" x2="92" y2="644" stroke="#2a78d6" stroke-width="2"/>
<circle cx="81" cy="644" r="4" fill="#2a78d6" stroke="#fcfcfb" stroke-width="2"/>
<text x="100" y="648" fill="#52514e">ISA size</text>
<line x1="280" y1="644" x2="302" y2="644" stroke="#eb6834" stroke-width="2"/>
<circle cx="291" cy="644" r="4" fill="#eb6834" stroke="#fcfcfb" stroke-width="2"/>
<text x="310" y="648" fill="#52514e">lifted by Remill</text>
<line x1="490" y1="644" x2="512" y2="644" stroke="#1baf7a" stroke-width="2"/>
<circle cx="501" cy="644" r="4" fill="#1baf7a" stroke="#fcfcfb" stroke-width="2"/>
<text x="520" y="648" fill="#52514e">coverage % (right panels)</text>
</g>
</svg>
